<svg xmlns="http://www.w3.org/2000/svg" xmlns:xlink="http://www.w3.org/1999/xlink" version="1.1" x="0px" y="0px" viewBox="0 0 100 100" style="enable-background:new 0 0 100 100;" xml:space="preserve"><style type="text/css">
	.st0{display:none;}
	.st1{display:inline;}
</style><g class="st0"><path class="st1" d="M86.5,20.9h-73c-2.8,0-5,2.2-5,5v48.2c0,2.8,2.2,5,5,5h73c2.8,0,5-2.2,5-5V25.9   C91.5,23.2,89.3,20.9,86.5,20.9z M87.5,74.1c0,0.5-0.5,1-1,1h-73c-0.5,0-1-0.5-1-1V25.9c0-0.5,0.5-1,1-1h73c0.5,0,1,0.5,1,1V74.1z"></path><path class="st1" d="M62.3,48.4l16.9-13.7c0.9-0.7,1-2,0.3-2.8c-0.7-0.9-2-1-2.8-0.3L50,53.3L23.3,31.6   c-0.9-0.7-2.1-0.6-2.8,0.3c-0.7,0.9-0.6,2.1,0.3,2.8l16.9,13.7L21.3,64.8c-0.8,0.8-0.8,2,0,2.8c0.4,0.4,0.9,0.6,1.4,0.6   s1-0.2,1.4-0.6L40.8,51l8,6.5c0.4,0.3,0.8,0.4,1.3,0.4s0.9-0.1,1.3-0.4l8-6.5l17.5,17.5c0.4,0.4,0.9,0.6,1.4,0.6s1-0.2,1.4-0.6   c0.8-0.8,0.8-2,0-2.8L62.3,48.4z"></path></g><path class="st0" d="M50,80.9c-0.3,0-0.6-0.1-0.9-0.2c-12.9-6.9-34.4-21.5-34.4-42.9c0-10.3,8.4-18.7,18.7-18.7  c6.6,0,12.9,2.7,16.7,6.9c3.8-4.3,10.1-6.9,16.7-6.9c10.3,0,18.7,8.4,18.7,18.7c0,21.3-21.6,36-34.4,42.9  C50.6,80.8,50.3,80.9,50,80.9z M33.3,23.1c-8.1,0-14.7,6.6-14.7,14.7C18.6,56.5,37.9,70,50,76.6C62.1,70,81.4,56.5,81.4,37.8  c0-8.1-6.6-14.7-14.7-14.7c-6.4,0-12.2,2.9-15,7.3c-0.4,0.6-1,1-1.7,1l0,0c-0.7,0-1.3-0.4-1.7-1C45.6,26,39.7,23.1,33.3,23.1z"></path><g class="st0"><path class="st1" d="M77.8,34.7c0-1.1-0.9-2-2-2h-57c-1.1,0-2,0.9-2,2s0.9,2,2,2h57C76.9,36.7,77.8,35.8,77.8,34.7z   "></path><path class="st1" d="M75.8,47.9h-47c-1.1,0-2,0.9-2,2s0.9,2,2,2h47c1.1,0,2-0.9,2-2S76.9,47.9,75.8,47.9z"></path><path class="st1" d="M75.8,64.3h-37c-1.1,0-2,0.9-2,2s0.9,2,2,2h37c1.1,0,2-0.9,2-2S76.9,64.3,75.8,64.3z"></path></g><path class="st0" d="M74.3,54.8C74.3,54.8,74.4,54.7,74.3,54.8c0.1-0.2,0.1-0.3,0.2-0.3v-0.1c0-0.1,0.1-0.2,0.1-0.3  s0-0.3,0-0.4s0-0.3,0-0.4c0-0.1,0-0.2-0.1-0.3v-0.1c0-0.1-0.1-0.2-0.1-0.3v-0.1c-0.1-0.1-0.2-0.2-0.2-0.3L54.4,32.6  c-0.8-0.8-2-0.8-2.8,0s-0.8,2,0,2.8l16.3,16.3H19.2c-1.1,0-2,0.9-2,2s0.9,2,2,2h48.6L51.6,71.9c-0.8,0.8-0.8,2,0,2.8  c0.4,0.4,0.9,0.6,1.4,0.6s1-0.2,1.4-0.6L74.1,55C74.2,55,74.3,54.9,74.3,54.8z"></path><path class="st0" d="M79.2,48H30.6l16.3-16.3c0.8-0.8,0.8-2,0-2.8s-2-0.8-2.8,0L24.3,48.6c-0.1,0.1-0.2,0.2-0.2,0.3  V49C24,49.1,24,49.2,24,49.3v0.1c0,0.1-0.1,0.2-0.1,0.3s0,0.3,0,0.4s0,0.3,0,0.4c0,0.1,0,0.2,0.1,0.3v0.1c0,0.1,0.1,0.2,0.1,0.3v0.1  c0.1,0.1,0.2,0.2,0.2,0.3L44,71.1c0.4,0.4,0.9,0.6,1.4,0.6s1-0.2,1.4-0.6c0.8-0.8,0.8-2,0-2.8L30.6,52h48.6c1.1,0,2-0.9,2-2  S80.3,48,79.2,48z"></path><path d="M88.7,51.9L51.4,16.5c-0.3-0.3-0.7-0.4-1.1-0.5c-0.6-0.1-1.3,0-1.8,0.5L11.3,51.9c-0.4,0.4-0.6,0.9-0.6,1.4  s0.2,1.1,0.6,1.4l5.5,5.5c0.8,0.8,2,0.8,2.8,0l0.3-0.3v18c0,3.3,2.7,6,6,6H40h19.3h14.5c3.3,0,6-2.7,6-6V59.7l0.7,0.6  c0.4,0.4,0.9,0.5,1.4,0.5s1-0.2,1.4-0.6l5.5-5.5c0.4-0.4,0.6-0.9,0.6-1.4C89.3,52.7,89.1,52.2,88.7,51.9z M42,80V59.6h15.3V80H42z   M75.8,78c0,1.1-0.9,2-2,2H61.4V57.6c0-1.1-0.9-2-2-2H40c-1.1,0-2,0.9-2,2V80H25.8c-1.1,0-2-0.9-2-2V56.3L50,31.7l25.8,24.2V78z   M81.8,56L51.4,27.5c-0.8-0.7-2-0.7-2.7,0L18.2,56l-2.7-2.7L50,20.7l34.5,32.6L81.8,56z"></path><g class="st0"><path class="st1" d="M81,30.3L69.3,18.7C67.8,17.2,65,16,62.8,16H30.3c-2.8,0-5,2.2-5,5v58c0,2.8,2.2,5,5,5h48.4   c2.8,0,5-2.2,5-5V36.9C83.7,34.7,82.5,31.9,81,30.3z M76.9,31.9h-9v-9L76.9,31.9z M79.7,79c0,0.5-0.5,1-1,1H30.3c-0.5,0-1-0.5-1-1   V21c0-0.5,0.5-1,1-1h32.5c0.3,0,0.6,0.1,1,0.1v13.7c0,1.1,0.9,2,2,2h13.7c0.1,0.4,0.1,0.7,0.1,1L79.7,79L79.7,79z"></path><path class="st1" d="M41,35.9h13c1.1,0,2-0.9,2-2s-0.9-2-2-2H41c-1.1,0-2,0.9-2,2S39.9,35.9,41,35.9z"></path><path class="st1" d="M68.5,43.8H41c-1.1,0-2,0.9-2,2s0.9,2,2,2h27.5c1.1,0,2-0.9,2-2S69.6,43.8,68.5,43.8z"></path><path class="st1" d="M68.5,55.8H41c-1.1,0-2,0.9-2,2s0.9,2,2,2h27.5c1.1,0,2-0.9,2-2S69.6,55.8,68.5,55.8z"></path><path class="st1" d="M68.5,67.7H41c-1.1,0-2,0.9-2,2s0.9,2,2,2h27.5c1.1,0,2-0.9,2-2S69.6,67.7,68.5,67.7z"></path></g><g class="st0"><path class="st1" d="M81,19.6H57.8c-1.6,0-3.1,0.6-4.2,1.8L18.7,56.1c-1.1,1.1-1.8,2.6-1.8,4.2s0.6,3.1,1.8,4.2   l19.2,19.2c1.2,1.2,2.7,1.8,4.3,1.8c1.5,0,3.1-0.6,4.3-1.8L81.3,49c1.1-1.1,1.8-2.6,1.8-4.2V21.6C83,20.5,82.1,19.6,81,19.6z    M79,44.8c0,0.5-0.2,1-0.6,1.4L43.6,81c-0.8,0.8-2.1,0.8-2.9,0L21.6,61.8c-0.4-0.4-0.6-0.9-0.6-1.4s0.2-1,0.6-1.4l34.8-34.8   c0.4-0.4,0.9-0.6,1.4-0.6H79V44.8z"></path><path class="st1" d="M67.9,42.9c2.1,0,4.2-0.8,5.8-2.4c3.2-3.2,3.2-8.4,0-11.6s-8.4-3.2-11.6,0   c-3.2,3.2-3.2,8.4,0,11.6C63.7,42.1,65.8,42.9,67.9,42.9z M64.9,31.8c0.8-0.8,1.9-1.2,3-1.2s2.2,0.4,3,1.2c1.6,1.6,1.6,4.3,0,5.9   c-1.6,1.6-4.3,1.6-5.9,0C63.2,36.1,63.2,33.4,64.9,31.8z"></path></g><path class="st0" d="M62.1,59.8c-3.7,0-6.9,1.6-9.1,4.2l-17-8.8c0.8-1.6,1.2-3.4,1.2-5.3s-0.5-3.7-1.2-5.3l17-8.8  c2.2,2.6,5.5,4.2,9.1,4.2c6.6,0,12.1-5.4,12.1-12.1c0-6.6-5.4-12.1-12.1-12.1S50,21.5,50,28.1c0,1.6,0.3,3,0.8,4.4l-17.3,8.9  c-2.2-2.2-5.2-3.5-8.5-3.5c-6.5,0-12,5.5-12,12.1s5.4,12.1,12.1,12.1c3.3,0,6.3-1.3,8.5-3.5l17.3,8.9c-0.5,1.4-0.8,2.8-0.8,4.4  c0,6.6,5.4,12.1,12.1,12.1s12.1-5.4,12.1-12.1S68.7,59.8,62.1,59.8z M62.1,20.1c4.4,0,8.1,3.6,8.1,8.1c0,4.4-3.6,8.1-8.1,8.1  S54,32.6,54,28.1C54,23.7,57.6,20.1,62.1,20.1z M25.1,58.1c-4.4,0-8.1-3.6-8.1-8.1c0-4.4,3.6-8.1,8.1-8.1c4.4,0,8.1,3.6,8.1,8.1  C33.2,54.4,29.5,58.1,25.1,58.1z M62.1,79.9c-4.4,0-8.1-3.6-8.1-8.1s3.6-8.1,8.1-8.1s8.1,3.6,8.1,8.1S66.5,79.9,62.1,79.9z"></path><g class="st0"><path class="st1" d="M72.8,31.1c-1.1-4.8-3.2-8.1-6.1-9.8c-2.4-1.4-5.4-1.7-8.5-0.8c-0.1,0-0.3,0.1-0.4,0.2   c-1.5-1-3.4-2-5.5-2.9c-12.2-5.2-22,6.2-25.5,12.9c-0.4,0.8-0.2,1.7,0.4,2.3c1.1,1.1,2.4,2.1,3.6,2.8c0,0.1-0.1,0.3-0.1,0.4   c-0.1,0.8-1.5,20.2,0,30c1.1,7.3,8,17.5,19.6,17.5c11.7,0,18.5-10.2,19.6-17.5c0.9-6.1,0.7-14.9,0.4-21.5   C71.9,43.1,74.7,39,72.8,31.1z M64.7,24.7c2,1.2,3.4,3.6,4.3,7.3c0.9,3.8,0.5,6.4-0.1,7.9l-5.9-11c0-0.3,0.1-0.6,0.1-0.9   c0-1.4-0.5-2.8-1.5-4.1C62.7,23.9,63.7,24.2,64.7,24.7z M36.3,24.7c4.7-4.3,9.5-5.4,14.4-3.4C55.9,23.5,59,26,59,28   c0,1.5-1.9,3.3-5.1,4.7c-6.7,2.9-16.1,3.9-22.8-1.6C32,29.6,33.8,27,36.3,24.7z M66.1,65.5C64.6,75.3,56,79.6,50.4,79.6   s-14.2-4.4-15.7-14.1c-1.2-8-0.3-23.6-0.1-27.9c2.7,1,5.5,1.4,8.3,1.4c4.5,0,8.9-1.1,12.6-2.7c2.2-0.9,3.9-2,5.1-3.3l5.8,11   C66.6,48.5,67.1,59,66.1,65.5z"></path><path class="st1" d="M54.4,68.2h-8c-1.1,0-2,0.9-2,2s0.9,2,2,2h8c1.1,0,2-0.9,2-2S55.5,68.2,54.4,68.2z"></path><circle class="st1" cx="43.8" cy="53.1" r="2"></circle><circle class="st1" cx="57.5" cy="53.1" r="2"></circle></g><g class="st0"><path class="st1" d="M78.2,22.4h-7.1v-4.7c0-1.1-0.9-2-2-2h-8.3c-1.1,0-2,0.9-2,2v4.7H40.6v-4.7c0-1.1-0.9-2-2-2   h-8.3c-1.1,0-2,0.9-2,2v4.7h-6.6c-3.3,0-6,2.7-6,6v46.3c0,3.3,2.7,6,6,6h56.5c3.3,0,6-2.7,6-6V28.4C84.2,25.1,81.6,22.4,78.2,22.4z    M62.8,19.7h4.3v7.7h-4.3V19.7z M32.3,19.7h4.3v7.7h-4.3V19.7z M21.8,26.4h6.6v3c0,1.1,0.9,2,2,2h8.3c1.1,0,2-0.9,2-2v-3h18.2v3   c0,1.1,0.9,2,2,2h8.3c1.1,0,2-0.9,2-2v-3h7.1c1.1,0,2,0.9,2,2v8H19.8v-8C19.8,27.3,20.6,26.4,21.8,26.4z M78.2,76.7H21.8   c-1.1,0-2-0.9-2-2V40.3h60.5v34.3C80.2,75.8,79.4,76.7,78.2,76.7z"></path><path class="st1" d="M38.6,45.4h-8.3c-1.1,0-2,0.9-2,2v8.3c0,1.1,0.9,2,2,2h8.3c1.1,0,2-0.9,2-2v-8.3   C40.6,46.3,39.7,45.4,38.6,45.4z M36.6,53.7h-4.3v-4.3h4.3V53.7z"></path><path class="st1" d="M69.1,45.4h-8.3c-1.1,0-2,0.9-2,2v8.3c0,1.1,0.9,2,2,2h8.3c1.1,0,2-0.9,2-2v-8.3   C71.1,46.3,70.2,45.4,69.1,45.4z M67.1,53.7h-4.3v-4.3h4.3V53.7z"></path><path class="st1" d="M54.2,45.4h-8.3c-1.1,0-2,0.9-2,2v8.3c0,1.1,0.9,2,2,2h8.3c1.1,0,2-0.9,2-2v-8.3   C56.2,46.3,55.3,45.4,54.2,45.4z M52.2,53.7h-4.3v-4.3h4.3V53.7z"></path><path class="st1" d="M38.6,60.1h-8.3c-1.1,0-2,0.9-2,2v8.3c0,1.1,0.9,2,2,2h8.3c1.1,0,2-0.9,2-2v-8.3   C40.6,61,39.7,60.1,38.6,60.1z M36.6,68.4h-4.3v-4.3h4.3V68.4z"></path><path class="st1" d="M69.1,60.1h-8.3c-1.1,0-2,0.9-2,2v8.3c0,1.1,0.9,2,2,2h8.3c1.1,0,2-0.9,2-2v-8.3   C71.1,61,70.2,60.1,69.1,60.1z M67.1,68.4h-4.3v-4.3h4.3V68.4z"></path><path class="st1" d="M54.2,60.1h-8.3c-1.1,0-2,0.9-2,2v8.3c0,1.1,0.9,2,2,2h8.3c1.1,0,2-0.9,2-2v-8.3   C56.2,61,55.3,60.1,54.2,60.1z M52.2,68.4h-4.3v-4.3h4.3V68.4z"></path></g></svg>